<svg version="1.1" id="Layer_1" xmlns="http://www.w3.org/2000/svg"
     xmlns:xlink="http://www.w3.org/1999/xlink" x="0px" y="0px"
     viewBox="0 0 512 512" preserveAspectRatio="xMaxYMin meet"
     enable-background="new 0 0 512 512" xml:space="preserve">
<path fill="#000000" opacity="1.000000" stroke="none" 
	d="
M240.194458,389.351624 
	C228.824661,389.000153 220.037064,384.224640 214.651138,374.796509 
	C208.448700,363.939056 210.738693,352.862610 216.639267,342.604279 
	C220.858322,335.269287 225.899353,328.403809 230.639542,321.373291 
	C232.991455,317.884979 233.277725,314.250427 231.682785,310.457672 
	C229.297745,304.786041 226.729218,299.190308 224.407639,293.493500 
	C218.867233,279.898163 221.282516,273.904907 234.671402,267.768982 
	C236.567947,266.899811 238.439590,265.792236 241.960037,265.804749 
	C238.687729,268.698151 236.227707,270.714386 233.950272,272.919250 
	C228.800247,277.905182 227.013138,283.457581 230.268707,290.458618 
	C232.581757,295.432800 235.486588,300.071991 237.597763,305.179260 
	C242.073669,316.007233 240.122513,325.503662 233.433090,334.693176 
	C228.655304,341.256561 223.782166,347.772461 222.003006,356.087433 
	C219.225967,369.066010 225.975388,381.915314 238.462708,386.532349 
	C241.501648,387.655975 241.501648,387.655975 240.194458,389.351624 
z"/>
<path fill="#000000" opacity="1.000000" stroke="none" 
	d="
M295.592041,364.332825 
	C296.421204,351.434265 291.792145,340.116089 288.077606,328.610748 
	C285.171173,319.608459 281.680420,310.713287 282.711700,300.974976 
	C283.177826,296.573151 283.757996,292.108124 288.168030,289.412262 
	C288.552979,289.844360 288.973175,290.141785 288.925873,290.287720 
	C284.945251,302.572205 289.165863,313.783508 293.298279,325.064606 
	C296.832550,334.712982 300.345367,344.371185 302.586334,354.447418 
	C306.086639,370.186218 300.688721,380.635956 285.746735,386.531464 
	C280.324829,388.670746 274.848694,390.603912 268.877655,390.306702 
	C267.106659,390.218536 265.219055,390.421600 263.887787,388.162109 
	C278.670868,385.847992 290.956757,380.391632 295.592041,364.332825 
z"/>
<path fill="#000000" opacity="1.000000" stroke="none" 
	d="
M263.243042,129.941956 
	C265.296936,134.255386 268.056519,138.001816 267.043213,142.855255 
	C266.544250,142.831970 266.102753,142.941116 265.969788,142.785919 
	C263.527344,139.935349 261.363159,135.276703 257.123749,136.826691 
	C252.351318,138.571548 250.726624,144.161530 247.971268,148.244522 
	C247.102844,149.531372 248.628326,150.686234 249.115341,151.867279 
	C252.707535,160.578552 254.377533,169.530838 252.931274,178.991135 
	C251.391403,178.785553 251.141983,177.702835 250.969208,176.790237 
	C249.105942,166.948578 244.562927,158.293686 238.999207,150.146820 
	C237.206665,147.522034 237.579971,145.703476 239.691742,143.644501 
	C244.360352,139.092606 248.226212,133.885605 251.757629,128.417542 
	C255.664658,122.367836 257.220123,122.314148 261.898132,127.994858 
	C262.320496,128.507767 262.678162,129.074005 263.243042,129.941956 
z"/>
<path fill="#000000" opacity="1.000000" stroke="none" 
	d="
M259.416321,251.000107 
	C259.346161,285.382263 259.968231,319.270386 259.120087,353.968079 
	C256.355652,350.030396 255.860413,201.987320 258.016663,196.911179 
	C258.483063,196.898529 258.949493,196.885880 259.415894,196.873230 
	C259.415894,214.748840 259.415894,232.624466 259.416321,251.000107 
z"/>
<path fill="#000000" opacity="1.000000" stroke="none" 
	d="
M253.369171,203.007065 
	C253.368973,248.502121 253.368973,293.498291 253.368973,338.494476 
	C250.220490,335.427917 249.908188,193.547394 251.982224,188.916214 
	C252.444611,188.879639 252.906998,188.843063 253.369385,188.806503 
	C253.369385,193.373718 253.369385,197.940948 253.369171,203.007065 
z"/>
<path fill="#000000" opacity="1.000000" stroke="none" 
	d="
M266.141174,195.249908 
	C266.139709,237.443878 266.139709,279.171295 266.139709,320.898712 
	C265.648041,320.893158 265.156342,320.887634 264.664673,320.882080 
	C263.257935,317.223755 263.173645,193.265182 264.664917,188.726181 
	C266.722809,190.487122 265.933960,192.770432 266.141174,195.249908 
z"/>
</svg>